<?xml version="1.0" standalone="no"?><!DOCTYPE svg PUBLIC "-//W3C//DTD SVG 1.1//EN" "http://www.w3.org/Graphics/SVG/1.1/DTD/svg11.dtd"><svg t="1753347885516" class="icon" viewBox="0 0 1024 1024" version="1.1" xmlns="http://www.w3.org/2000/svg" p-id="10556" xmlns:xlink="http://www.w3.org/1999/xlink" width="200" height="200"><path d="M854.155636 986.810182H108.893091a71.028364 71.028364 0 0 1-71.540364-70.283637V160.581818a71.028364 71.028364 0 0 1 71.540364-70.283636h384.349091a39.214545 39.214545 0 0 1 39.447273 38.749091 39.563636 39.563636 0 0 1-39.447273 38.725818H116.782545v741.562182h730.042182V480.372364a39.447273 39.447273 0 0 1 78.871273 0v436.154181a70.330182 70.330182 0 0 1-71.540364 70.283637zM212.503273 427.822545h231.866182a34.909091 34.909091 0 0 1 34.90909 34.909091v1.024a34.909091 34.909091 0 0 1-34.90909 34.909091H212.503273a34.909091 34.909091 0 0 1-34.909091-34.909091v-1.024a34.909091 34.909091 0 0 1 34.909091-34.909091z m-1.140364 210.245819H562.036364a33.768727 33.768727 0 0 1 33.768727 33.768727v1.047273a33.768727 33.768727 0 0 1-33.768727 33.768727H211.362909a33.768727 33.768727 0 0 1-33.768727-33.768727v-1.047273a33.768727 33.768727 0 0 1 33.768727-33.768727zM926.510545 47.755636L564.48 409.786182a34.909091 34.909091 0 0 0 49.361455 49.361454L975.895273 97.117091a34.909091 34.909091 0 0 0-49.384728-49.361455z" fill="#2c2c2c" p-id="10557"></path></svg>