<?xml version="1.0" standalone="no"?><!DOCTYPE svg PUBLIC "-//W3C//DTD SVG 1.1//EN"
  "http://www.w3.org/Graphics/SVG/1.1/DTD/svg11.dtd">
<svg t="1753766733103" class="icon" viewBox="0 0 1024 1024" version="1.1"
     xmlns="http://www.w3.org/2000/svg" p-id="17588" xmlns:xlink="http://www.w3.org/1999/xlink"
     width="200" height="200">
  <path
    d="M622.933333 17.066667c20.411733 0 36.983467 16.622933 36.983467 37.12v202.922666c0 4.096 3.310933 7.424 7.389867 7.424h232.96c30.6176 0 55.466667 24.917333 55.466666 55.671467v194.6112a55.569067 55.569067 0 0 1-55.466666 55.671467h-25.463467l28.757333 396.629333A37.085867 37.085867 0 0 1 866.696533 1006.933333H157.320533a37.0688 37.0688 0 0 1-36.864-39.816533l28.7232-396.629333H123.733333A55.586133 55.586133 0 0 1 68.266667 514.816V320.221867A55.586133 55.586133 0 0 1 123.733333 264.533333H356.693333a7.406933 7.406933 0 0 0 7.389867-7.424V54.186667c0-20.497067 16.554667-37.12 36.983467-37.12h221.866666z m-22.186666 240.042666V76.458667H423.253333v180.650666c0 4.573867-0.443733 9.045333-1.3312 13.431467a68.1472 68.1472 0 0 1-9.966933 23.825067 66.440533 66.440533 0 0 1-29.3376 24.285866 66.3552 66.3552 0 0 1-25.924267 5.2736H127.4368v187.170134h769.1264V323.925333H667.306667a66.218667 66.218667 0 0 1-36.113067-10.666666l-0.136533-0.085334-0.170667-0.119466a66.884267 66.884267 0 0 1-24.866133-29.917867 68.113067 68.113067 0 0 1-3.925334-12.578133 67.669333 67.669333 0 0 1-1.365333-13.448534zM815.530667 571.392H208.452267l-27.255467 376.149333h449.1264V759.466667c0-16.622933 13.021867-29.696 29.5936-29.696 16.554667 0 29.576533 13.073067 29.576533 29.696v188.074666h153.309867l-27.255467-376.149333z"
    p-id="17589"></path>
</svg>
