<?xml version="1.0" standalone="no"?><!DOCTYPE svg PUBLIC "-//W3C//DTD SVG 1.1//EN" "http://www.w3.org/Graphics/SVG/1.1/DTD/svg11.dtd"><svg t="1753865229608" class="icon" viewBox="0 0 1024 1024" version="1.1" xmlns="http://www.w3.org/2000/svg" p-id="4341" xmlns:xlink="http://www.w3.org/1999/xlink" width="200" height="200"><path d="M661.333333 405.333333c12.8 0 21.333333 8.533333 21.333334 21.333334v85.333333c0 12.8-8.533333 21.333333-21.333334 21.333333s-21.333333-8.533333-21.333333-21.333333v-85.333333c0-12.8 8.533333-21.333333 21.333333-21.333334z m-298.666666 0c12.8 0 21.333333 8.533333 21.333333 21.333334v85.333333c0 12.8-8.533333 21.333333-21.333333 21.333333S341.333333 524.8 341.333333 512v-85.333333c0-12.8 8.533333-21.333333 21.333334-21.333334z m256 213.333334c12.8 0 21.333333 8.533333 21.333333 21.333333s-8.533333 21.333333-21.333333 21.333333h-213.333334c-12.8 0-21.333333-8.533333-21.333333-21.333333s8.533333-21.333333 21.333333-21.333333h213.333334z m298.666666-277.333334c12.8 0 21.333333 8.533333 21.333334 21.333334v341.333333c0 12.8-8.533333 21.333333-21.333334 21.333333s-21.333333-8.533333-21.333333-21.333333v-341.333333c0-12.8 8.533333-21.333333 21.333333-21.333334z m-810.666666 0c12.8 0 21.333333 8.533333 21.333333 21.333334v341.333333c0 12.8-8.533333 21.333333-21.333333 21.333333s-21.333333-8.533333-21.333334-21.333333v-341.333333c0-12.8 8.533333-21.333333 21.333334-21.333334zM810.666667 256H213.333333v554.666667h597.333334V256z m-256-128c12.8 0 21.333333 8.533333 21.333333 21.333333s-8.533333 21.333333-21.333333 21.333334h-21.333334v42.666666H853.333333v640H170.666667V213.333333h320V170.666667H469.333333c-12.8 0-21.333333-8.533333-21.333333-21.333334s8.533333-21.333333 21.333333-21.333333h85.333334z" p-id="4342"></path></svg>